<?xml version="1.0" encoding="utf-8"?>
<!-- Generator: Adobe Illustrator 25.2.3, SVG Export Plug-In . SVG Version: 6.00 Build 0)  -->
<svg version="1.1" id="monte-pascal-marca-registrada_1_"
	 xmlns="http://www.w3.org/2000/svg" xmlns:xlink="http://www.w3.org/1999/xlink" x="0px" y="0px" viewBox="0 0 992.16 232.56"
	 style="enable-background:new 0 0 992.16 232.56;" xml:space="preserve">
<style type="text/css">
	.st0{fill:#C00D0D;}
	.st1{fill:#FFFFFF;}
</style>
<g id="background">
	<g>
		<path class="st0" d="M989.33,0H2.83C1.27,0,0,1.27,0,2.83v226.89c0,1.57,1.27,2.83,2.83,2.83h986.49c1.57,0,2.83-1.27,2.83-2.83
			V2.83C992.16,1.27,990.89,0,989.33,0z"/>
	</g>
</g>
<g id="monte_pascoal">
	<g>
		<path class="st1" d="M126.42,67.87h-12.75c-0.92,0-1.57,0.42-1.94,1.25L98.57,99.05c-0.28,0.55-0.55,0.55-0.83,0l-13.3-29.93
			c-0.37-0.83-1.02-1.25-1.94-1.25H69.89c-0.46,0-0.86,0.16-1.18,0.49c-0.32,0.32-0.49,0.72-0.49,1.18v93.68
			c0,0.46,0.16,0.86,0.49,1.18c0.32,0.32,0.71,0.48,1.18,0.48h12.75c0.46,0,0.85-0.16,1.18-0.48c0.32-0.32,0.49-0.71,0.49-1.18
			v-60.56c0-0.37,0.09-0.58,0.28-0.62c0.18-0.05,0.37,0.07,0.55,0.35l11.92,24.53c0.46,0.83,0.83,1.25,1.11,1.25
			c0.37,0,0.74-0.42,1.11-1.25l11.92-24.25c0.18-0.28,0.37-0.42,0.55-0.42c0.18,0,0.28,0.19,0.28,0.55v60.42
			c0,0.46,0.16,0.86,0.49,1.18c0.32,0.32,0.71,0.48,1.18,0.48h12.75c0.46,0,0.85-0.16,1.18-0.48c0.32-0.32,0.49-0.71,0.49-1.18
			V69.53c0-0.46-0.16-0.85-0.49-1.18C127.28,68.03,126.89,67.87,126.42,67.87z M167.58,66.76c-7.95,0-14.34,2.4-19.19,7.21
			c-4.85,4.8-7.28,11.18-7.28,19.12v46.56c0,7.95,2.43,14.32,7.28,19.12c4.85,4.8,11.25,7.21,19.19,7.21
			c7.94,0,14.36-2.4,19.26-7.21c4.9-4.8,7.34-11.18,7.34-19.12V93.09c0-7.94-2.45-14.32-7.34-19.12
			C181.95,69.16,175.53,66.76,167.58,66.76z M178.11,140.34c0,3.51-0.97,6.35-2.91,8.52c-1.94,2.17-4.48,3.26-7.62,3.26
			c-3.14,0-5.66-1.08-7.55-3.26c-1.89-2.17-2.84-5.01-2.84-8.52V92.4c0-3.51,0.95-6.35,2.84-8.52c1.89-2.17,4.41-3.26,7.55-3.26
			c3.14,0,5.68,1.09,7.62,3.26c1.94,2.17,2.91,5.01,2.91,8.52V140.34z M261.12,67.87h-12.61c-0.46,0-0.86,0.16-1.18,0.49
			c-0.32,0.32-0.49,0.72-0.49,1.18v55.85c0,0.37-0.09,0.55-0.28,0.55c-0.19,0-0.37-0.14-0.55-0.42l-21.48-56.4
			c-0.28-0.83-0.92-1.25-1.94-1.25h-13.3c-0.46,0-0.86,0.16-1.18,0.49c-0.32,0.32-0.48,0.72-0.48,1.18v93.68
			c0,0.46,0.16,0.86,0.48,1.18c0.32,0.32,0.71,0.48,1.18,0.48h12.47c0.46,0,0.85-0.16,1.18-0.48c0.32-0.32,0.49-0.71,0.49-1.18
			l-0.14-55.99c0-0.28,0.11-0.44,0.35-0.49c0.23-0.05,0.39,0.07,0.49,0.35l21.62,56.54c0.28,0.83,0.92,1.25,1.94,1.25h13.44
			c0.46,0,0.85-0.16,1.18-0.48c0.32-0.32,0.48-0.71,0.48-1.18V69.53c0-0.46-0.16-0.85-0.48-1.18
			C261.97,68.03,261.58,67.87,261.12,67.87z M327.5,67.87h-51.69c-0.46,0-0.86,0.16-1.18,0.49c-0.32,0.32-0.48,0.72-0.48,1.18v10.53
			c0,0.46,0.16,0.86,0.48,1.18c0.32,0.32,0.71,0.49,1.18,0.49h16.63c0.46,0,0.69,0.23,0.69,0.69v80.79c0,0.46,0.16,0.86,0.48,1.18
			c0.32,0.32,0.71,0.48,1.18,0.48h12.75c0.46,0,0.85-0.16,1.18-0.48c0.32-0.32,0.48-0.71,0.48-1.18V82.42
			c0-0.46,0.23-0.69,0.69-0.69h17.6c0.46,0,0.85-0.16,1.18-0.49c0.32-0.32,0.48-0.71,0.48-1.18V69.53c0-0.46-0.16-0.85-0.48-1.18
			C328.35,68.03,327.96,67.87,327.5,67.87z M387.08,67.87h-45.04c-0.46,0-0.86,0.16-1.18,0.49c-0.32,0.32-0.48,0.72-0.48,1.18v93.68
			c0,0.46,0.16,0.86,0.48,1.18c0.32,0.32,0.71,0.48,1.18,0.48h45.04c0.46,0,0.85-0.16,1.18-0.48c0.32-0.32,0.48-0.71,0.48-1.18
			v-10.53c0-0.46-0.16-0.85-0.48-1.18c-0.32-0.32-0.72-0.48-1.18-0.48h-29.93c-0.46,0-0.69-0.23-0.69-0.69v-26.33
			c0-0.46,0.23-0.69,0.69-0.69h17.74c0.46,0,0.85-0.16,1.18-0.49c0.32-0.32,0.48-0.71,0.48-1.18v-10.67c0-0.46-0.16-0.85-0.48-1.18
			c-0.32-0.32-0.72-0.48-1.18-0.48h-17.74c-0.46,0-0.69-0.23-0.69-0.69V82.42c0-0.46,0.23-0.69,0.69-0.69h29.93
			c0.46,0,0.85-0.16,1.18-0.49c0.32-0.32,0.48-0.71,0.48-1.18V69.53c0-0.46-0.16-0.85-0.48-1.18
			C387.94,68.03,387.55,67.87,387.08,67.87z M538.87,71.33c-3.74-2.4-8.06-3.6-12.96-3.6h-26.05c-0.46,0-0.86,0.16-1.18,0.49
			c-0.32,0.32-0.49,0.72-0.49,1.18v93.82c0,0.46,0.16,0.86,0.49,1.18c0.32,0.32,0.71,0.48,1.18,0.48h12.75
			c0.46,0,0.85-0.16,1.18-0.48c0.32-0.32,0.49-0.71,0.49-1.18v-38.52c0-0.46,0.23-0.69,0.69-0.69h11.78c7.21,0,13-2.54,17.39-7.62
			c4.39-5.08,6.58-11.78,6.58-20.09c0-5.54-1.04-10.48-3.12-14.83C545.53,77.11,542.61,73.74,538.87,71.33z M531.53,107.43
			c-2.08,2.63-4.83,3.95-8.25,3.95h-8.31c-0.46,0-0.69-0.23-0.69-0.69V82.28c0-0.46,0.23-0.69,0.69-0.69h8.31
			c3.42,0,6.17,1.36,8.25,4.09c2.08,2.73,3.12,6.4,3.12,11.02C534.65,101.22,533.61,104.8,531.53,107.43z M590.77,67.87h-14.83
			c-1.02,0-1.62,0.51-1.8,1.52l-20.37,93.68c-0.28,1.2,0.18,1.8,1.39,1.8h12.75c1.11,0,1.71-0.51,1.8-1.52l2.77-14.69
			c0-0.37,0.28-0.55,0.83-0.55h20.09c0.55,0,0.83,0.23,0.83,0.69l2.63,14.55c0.09,1.02,0.69,1.52,1.8,1.52h12.89
			c1.02,0,1.52-0.42,1.52-1.25v-0.55l-20.51-93.68C592.39,68.38,591.79,67.87,590.77,67.87z M591.05,135.49h-15.1
			c-0.55,0-0.79-0.23-0.69-0.69l8.04-41.85c0.09-0.28,0.23-0.42,0.42-0.42c0.18,0,0.32,0.14,0.42,0.42l7.62,41.85
			C591.83,135.26,591.6,135.49,591.05,135.49z M661.58,120.11c-2.86-2.59-7.12-6-12.75-10.25c-5.54-4.06-9.26-7.25-11.16-9.56
			c-1.89-2.31-2.84-5.13-2.84-8.45c0-3.51,0.88-6.26,2.63-8.25c1.75-1.99,3.97-2.98,6.65-2.98c2.96,0,5.34,1.09,7.14,3.26
			c1.8,2.17,2.7,5.06,2.7,8.66v3.6c0,0.46,0.16,0.86,0.49,1.18c0.32,0.32,0.71,0.49,1.18,0.49h12.61c0.46,0,0.85-0.16,1.18-0.49
			c0.32-0.32,0.49-0.71,0.49-1.18v-3.33c0-7.85-2.36-14.16-7.07-18.92c-4.71-4.76-10.95-7.14-18.71-7.14
			c-7.48,0-13.54,2.26-18.15,6.79c-4.62,4.53-6.93,10.62-6.93,18.29c0,4.8,0.95,9.03,2.84,12.68c1.89,3.65,4.25,6.77,7.07,9.35
			c2.82,2.59,6.53,5.54,11.16,8.87c4.06,2.96,7,5.22,8.8,6.79c1.8,1.57,3.21,3.26,4.23,5.06c1.02,1.8,1.52,3.86,1.52,6.17
			c0,3.42-0.92,6.17-2.77,8.25c-1.85,2.08-4.2,3.12-7.07,3.12c-2.77,0-5.08-1.11-6.93-3.33c-1.85-2.22-2.77-5.13-2.77-8.73v-3.05
			c0-0.46-0.16-0.85-0.49-1.18c-0.32-0.32-0.72-0.49-1.18-0.49h-12.47c-0.46,0-0.86,0.16-1.18,0.49c-0.32,0.32-0.48,0.72-0.48,1.18
			v3.88c0,7.39,2.36,13.42,7.07,18.08c4.71,4.67,10.85,7,18.43,7c7.67,0,13.88-2.38,18.64-7.14c4.76-4.76,7.14-11.06,7.14-18.92
			c0-4.34-0.79-8.08-2.36-11.22C666.66,125.56,664.44,122.7,661.58,120.11z M706.62,66.76c-7.85,0-14.16,2.33-18.92,7
			c-4.76,4.67-7.14,10.97-7.14,18.92v47.25c0,7.85,2.38,14.16,7.14,18.92c4.76,4.76,11.06,7.14,18.92,7.14
			c7.94,0,14.32-2.38,19.12-7.14c4.8-4.76,7.21-11.06,7.21-18.92v-1.66c0-0.46-0.16-0.85-0.49-1.18c-0.32-0.32-0.72-0.49-1.18-0.49
			l-12.89-0.55c-0.46,0-0.86,0.16-1.18,0.49c-0.32,0.32-0.48,0.72-0.48,1.18v3.46c0,3.23-0.92,5.87-2.77,7.9
			c-1.85,2.03-4.3,3.05-7.34,3.05c-2.96,0-5.36-1.02-7.21-3.05c-1.85-2.03-2.77-4.66-2.77-7.9V91.56c0-3.23,0.92-5.87,2.77-7.9
			c1.85-2.03,4.25-3.05,7.21-3.05c3.05,0,5.5,1.02,7.34,3.05c1.85,2.03,2.77,4.67,2.77,7.9v3.46c0,1.11,0.55,1.66,1.66,1.66
			l12.89-0.55c0.46,0,0.85-0.18,1.18-0.55c0.32-0.37,0.49-0.78,0.49-1.25v-1.66c0-7.94-2.4-14.25-7.21-18.92
			C720.94,69.09,714.56,66.76,706.62,66.76z M770.36,66.76c-7.95,0-14.34,2.4-19.19,7.21c-4.85,4.8-7.28,11.18-7.28,19.12v46.56
			c0,7.95,2.43,14.32,7.28,19.12c4.85,4.8,11.25,7.21,19.19,7.21c7.94,0,14.36-2.4,19.26-7.21c4.9-4.8,7.34-11.18,7.34-19.12V93.09
			c0-7.94-2.45-14.32-7.34-19.12C784.73,69.16,778.31,66.76,770.36,66.76z M780.89,140.34c0,3.51-0.97,6.35-2.91,8.52
			c-1.94,2.17-4.48,3.26-7.62,3.26c-3.14,0-5.66-1.08-7.55-3.26c-1.89-2.17-2.84-5.01-2.84-8.52V92.4c0-3.51,0.95-6.35,2.84-8.52
			c1.89-2.17,4.41-3.26,7.55-3.26c3.14,0,5.68,1.09,7.62,3.26c1.94,2.17,2.91,5.01,2.91,8.52V140.34z M842.15,67.87h-14.83
			c-1.02,0-1.62,0.51-1.8,1.52l-20.37,93.68c-0.28,1.2,0.18,1.8,1.39,1.8h12.75c1.11,0,1.71-0.51,1.8-1.52l2.77-14.69
			c0-0.37,0.28-0.55,0.83-0.55h20.09c0.55,0,0.83,0.23,0.83,0.69l2.63,14.55c0.09,1.02,0.69,1.52,1.8,1.52h12.89
			c1.02,0,1.52-0.42,1.52-1.25v-0.55l-20.51-93.68C843.76,68.38,843.16,67.87,842.15,67.87z M842.42,135.49h-15.1
			c-0.55,0-0.79-0.23-0.69-0.69l8.04-41.85c0.09-0.28,0.23-0.42,0.42-0.42c0.18,0,0.32,0.14,0.42,0.42l7.62,41.85
			C843.21,135.26,842.98,135.49,842.42,135.49z M923.7,151.5c-0.32-0.32-0.72-0.48-1.18-0.48h-29.93c-0.46,0-0.69-0.23-0.69-0.69
			V69.53c0-0.46-0.16-0.85-0.48-1.18c-0.32-0.32-0.72-0.49-1.18-0.49h-12.75c-0.46,0-0.86,0.16-1.18,0.49
			c-0.32,0.32-0.48,0.72-0.48,1.18v93.68c0,0.46,0.16,0.86,0.48,1.18c0.32,0.32,0.71,0.48,1.18,0.48h45.04
			c0.46,0,0.85-0.16,1.18-0.48c0.32-0.32,0.48-0.71,0.48-1.18v-10.53C924.18,152.22,924.02,151.82,923.7,151.5z"/>
	</g>
</g>
<g id="cruz_de_malta">
	<g>
		<path class="st1" d="M466.32,107.76c-5.04,0-10.08,0-15.12,0c0-4.96,0-9.92,0-14.88c2.48-2.56,4.96-5.12,7.44-7.68
			c-10.08,0-20.16,0-30.24,0c2.48,2.48,4.96,4.96,7.44,7.44c0,5.04,0,10.08,0,15.12c-4.96,0-9.92,0-14.88,0
			c-2.56-2.48-5.12-4.96-7.68-7.44c0,10.08,0,20.16,0,30.24c2.48-2.48,4.96-4.96,7.44-7.44c5.04,0,10.08,0,15.12,0
			c0,4.96,0,9.92,0,14.88c0,0.08,0,0.16,0,0.24c-2.48,2.48-4.96,4.96-7.44,7.44c10.08,0,20.16,0,30.24,0
			c-2.48-2.48-4.96-4.96-7.44-7.44c0-5.04,0-10.08,0-15.12c4.96,0,9.92,0,14.88,0c2.56,2.48,5.12,4.96,7.68,7.44
			c0-10.08,0-20.16,0-30.24C471.28,102.8,468.8,105.28,466.32,107.76z M466.08,118.08c-6.64,0-13.28,0-19.92,0
			c0,6.64,0,13.28,0,19.92c-1.76,0-3.52,0-5.28,0c0-6.64,0-13.28,0-19.92c-6.64,0-13.28,0-19.92,0c0-1.76,0-3.52,0-5.28
			c6.64,0,13.28,0,19.92,0c0-6.64,0-13.28,0-19.92c1.76,0,3.52,0,5.28,0c0,6.64,0,13.28,0,19.92c6.64,0,13.28,0,19.92,0
			C466.08,114.56,466.08,116.32,466.08,118.08z"/>
	</g>
</g>
<g id="_xAE_">
	<g>
		<path class="st1" d="M968.98,21.59c0-0.98-0.35-1.71-1.06-2.19c-0.71-0.48-1.79-0.72-3.24-0.72h-3.81v10.56h1.73v-4.59h2.19
			l2.16,4.59h1.93l-2.31-4.84c0.74-0.13,1.33-0.45,1.77-0.95C968.76,22.96,968.98,22.34,968.98,21.59z M966.55,23.09
			c-0.43,0.28-1.14,0.41-2.15,0.41h-1.81v-3.66h1.77c1,0,1.72,0.15,2.16,0.45c0.45,0.3,0.67,0.78,0.67,1.44
			C967.19,22.36,966.97,22.81,966.55,23.09z M972.77,20.57c-0.45-1.12-1.09-2.11-1.92-2.96c-0.87-0.89-1.85-1.56-2.94-2.03
			c-1.1-0.47-2.26-0.7-3.48-0.7c-1.22,0-2.36,0.23-3.43,0.68c-1.07,0.45-2.02,1.11-2.84,1.97c-0.87,0.9-1.54,1.91-2.01,3.04
			c-0.47,1.13-0.7,2.31-0.7,3.54c0,1.22,0.22,2.39,0.67,3.51c0.45,1.11,1.1,2.11,1.96,2.98c0.87,0.9,1.85,1.58,2.94,2.05
			c1.09,0.47,2.23,0.7,3.41,0.7c1.18,0,2.32-0.24,3.41-0.71c1.1-0.47,2.09-1.15,2.99-2.04c0.85-0.85,1.5-1.82,1.94-2.93
			c0.45-1.11,0.67-2.29,0.67-3.56C973.44,22.87,973.22,21.69,972.77,20.57z M971.77,27.26c-0.4,0.97-0.97,1.83-1.71,2.59
			c-0.78,0.78-1.65,1.37-2.61,1.78c-0.97,0.41-1.99,0.61-3.05,0.61c-1.04,0-2.04-0.2-3-0.61c-0.95-0.41-1.8-1-2.55-1.77
			c-0.75-0.79-1.33-1.67-1.73-2.65c-0.4-0.98-0.6-2-0.6-3.06c0-1.09,0.2-2.13,0.61-3.13c0.41-1,1-1.89,1.76-2.69
			c0.73-0.75,1.56-1.33,2.5-1.72c0.94-0.39,1.95-0.59,3.02-0.59c1.09,0,2.12,0.2,3.08,0.61c0.96,0.41,1.82,1,2.59,1.78
			c0.73,0.76,1.3,1.64,1.69,2.63s0.59,2.04,0.59,3.16C972.36,25.26,972.16,26.29,971.77,27.26z"/>
	</g>
</g>
</svg>
