<?xml version="1.0" encoding="utf-8"?>
<!-- Generator: Adobe Illustrator 25.2.3, SVG Export Plug-In . SVG Version: 6.00 Build 0)  -->
<svg version="1.1" id="Camada_1" xmlns="http://www.w3.org/2000/svg" xmlns:xlink="http://www.w3.org/1999/xlink" x="0px" y="0px"
	 viewBox="0 0 1200 1200" style="enable-background:new 0 0 1200 1200;" xml:space="preserve">
<style type="text/css">
	.st0{display:none;}
	.st1{display:inline;}
	.st2{fill:#C00D0D;}
	.st3{fill:#FFFFFF;}
</style>
<g id="background" class="st0">
	<g class="st1">
		<path class="st2" d="M1196.72-0.13H3.28c-1.89,0-3.43,6.55-3.43,14.63V1185.5c0,8.08,1.54,14.63,3.43,14.63h1193.44
			c1.89,0,3.43-6.55,3.43-14.63V14.5C1200.15,6.42,1198.61-0.13,1196.72-0.13z"/>
	</g>
</g>
<circle class="st2" cx="600" cy="600" r="583"/>
<g id="cruz_de_malta">
	<g>
		<path class="st3" d="M843.89,517.85c-53.91,0-107.83,0-161.74,0c0-53.05,0-106.12,0-159.17c26.53-27.38,53.06-54.77,79.59-82.15
			c-107.82,0-215.66,0-323.48,0c26.53,26.53,53.06,53.06,79.59,79.59c0,53.91,0,107.83,0,161.74c-53.05,0-106.12,0-159.17,0
			c-27.38-26.53-54.77-53.06-82.15-79.59c0,107.82,0,215.66,0,323.48c26.53-26.53,53.06-53.06,79.59-79.59
			c53.91,0,107.83,0,161.74,0c0,53.05,0,106.12,0,159.17c0,0.86,0,1.71,0,2.57c-26.53,26.53-53.06,53.06-79.59,79.59
			c107.82,0,215.66,0,323.48,0c-26.53-26.53-53.06-53.06-79.59-79.59c0-53.91,0-107.83,0-161.74c53.05,0,106.12,0,159.17,0
			c27.38,26.53,54.77,53.06,82.15,79.59c0-107.82,0-215.66,0-323.48C896.95,464.79,870.42,491.32,843.89,517.85z M841.33,628.24
			c-71.02,0-142.06,0-213.09,0c0,71.02,0,142.06,0,213.09c-18.82,0-37.66,0-56.48,0c0-71.02,0-142.06,0-213.09
			c-71.02,0-142.06,0-213.09,0c0-18.82,0-37.66,0-56.48c71.02,0,142.06,0,213.09,0c0-71.02,0-142.06,0-213.09
			c18.82,0,37.66,0,56.48,0c0,71.02,0,142.06,0,213.09c71.02,0,142.06,0,213.09,0C841.33,590.58,841.33,609.42,841.33,628.24z"/>
	</g>
</g>
</svg>
