<svg id="monte-pascal-marca-registrada" xmlns="http://www.w3.org/2000/svg" viewBox="0 0 905.22 151.1"><defs><style>.cls-1{fill:#fff;}</style></defs><g id="monte_pascoal" data-name="monte pascoal"><path class="cls-1" d="M126.42,67.87H113.68a1.94,1.94,0,0,0-1.94,1.24L98.57,99.05c-.28.55-.55.55-.83,0L84.44,69.11a2,2,0,0,0-1.94-1.24H69.89a1.66,1.66,0,0,0-1.67,1.66v93.68a1.66,1.66,0,0,0,1.67,1.66H82.63a1.6,1.6,0,0,0,1.18-.48,1.64,1.64,0,0,0,.49-1.18V102.65c0-.37.09-.58.27-.62s.37.07.56.34L97.05,126.9c.46.83.83,1.25,1.11,1.25s.73-.42,1.1-1.25l11.92-24.25c.19-.28.37-.42.56-.42s.27.19.27.56v60.42a1.66,1.66,0,0,0,1.67,1.66h12.74a1.66,1.66,0,0,0,1.67-1.66V69.53a1.66,1.66,0,0,0-1.67-1.66Zm41.16-1.11q-11.93,0-19.19,7.2t-7.28,19.13v46.56q0,11.92,7.28,19.12T167.58,166q11.92,0,19.26-7.21t7.35-19.12V93.09q0-11.93-7.35-19.13T167.58,66.76Zm10.53,73.58a12.31,12.31,0,0,1-2.91,8.53,9.73,9.73,0,0,1-7.62,3.25,9.51,9.51,0,0,1-7.55-3.25,12.47,12.47,0,0,1-2.84-8.53V92.4A12.49,12.49,0,0,1,160,83.87a9.51,9.51,0,0,1,7.55-3.25,9.73,9.73,0,0,1,7.62,3.25,12.33,12.33,0,0,1,2.91,8.53Zm83-72.47H248.51a1.61,1.61,0,0,0-1.18.48,1.63,1.63,0,0,0-.48,1.18v55.85c0,.37-.1.55-.28.55s-.37-.14-.55-.41L224.54,69.11a1.82,1.82,0,0,0-1.94-1.24H209.29a1.64,1.64,0,0,0-1.66,1.66v93.68a1.64,1.64,0,0,0,1.66,1.66h12.47a1.6,1.6,0,0,0,1.18-.48,1.64,1.64,0,0,0,.49-1.18l-.14-56a.42.42,0,0,1,.35-.48c.22,0,.39.07.48.34l21.62,56.54a1.81,1.81,0,0,0,1.94,1.25h13.44a1.64,1.64,0,0,0,1.66-1.66V69.53a1.64,1.64,0,0,0-1.66-1.66Zm66.38,0H275.81a1.6,1.6,0,0,0-1.18.48,1.63,1.63,0,0,0-.48,1.18V80.06a1.66,1.66,0,0,0,1.66,1.67h16.63a.61.61,0,0,1,.69.69v80.79a1.66,1.66,0,0,0,1.66,1.66h12.75a1.61,1.61,0,0,0,1.18-.48,1.63,1.63,0,0,0,.48-1.18V82.42a.61.61,0,0,1,.7-.69h17.6a1.64,1.64,0,0,0,1.18-.49,1.6,1.6,0,0,0,.48-1.18V69.53a1.64,1.64,0,0,0-1.66-1.66Zm59.58,0h-45a1.66,1.66,0,0,0-1.67,1.66v93.68a1.66,1.66,0,0,0,1.67,1.66h45a1.66,1.66,0,0,0,1.67-1.66V152.68a1.59,1.59,0,0,0-.49-1.18,1.61,1.61,0,0,0-1.18-.49H357.15a.61.61,0,0,1-.69-.69V124a.61.61,0,0,1,.69-.69h17.74a1.66,1.66,0,0,0,1.66-1.66V111a1.66,1.66,0,0,0-1.66-1.66H357.15a.61.61,0,0,1-.69-.69V82.42a.61.61,0,0,1,.69-.69h29.93a1.61,1.61,0,0,0,1.18-.49,1.57,1.57,0,0,0,.49-1.18V69.53a1.66,1.66,0,0,0-1.67-1.66Zm151.79,3.46a23.46,23.46,0,0,0-13-3.6H499.86a1.66,1.66,0,0,0-1.66,1.66v93.82a1.66,1.66,0,0,0,1.66,1.66h12.75a1.61,1.61,0,0,0,1.18-.48,1.64,1.64,0,0,0,.49-1.18V124.68A.61.61,0,0,1,515,124h11.78q10.8,0,17.39-7.62t6.58-20.09a33.89,33.89,0,0,0-3.12-14.83A24,24,0,0,0,538.87,71.33Zm-7.34,36.1a10,10,0,0,1-8.25,3.95H515a.61.61,0,0,1-.69-.69V82.28a.61.61,0,0,1,.69-.69h8.31a9.88,9.88,0,0,1,8.25,4.08q3.12,4.1,3.12,11T531.53,107.43Zm59.24-39.56H575.94a1.65,1.65,0,0,0-1.8,1.52l-20.37,93.68c-.28,1.2.18,1.8,1.39,1.8H567.9a1.57,1.57,0,0,0,1.81-1.52l2.77-14.69c0-.37.27-.56.83-.56H593.4c.56,0,.83.24.83.7l2.64,14.55a1.56,1.56,0,0,0,1.8,1.52h12.89c1,0,1.52-.41,1.52-1.25v-.55L592.57,69.39A1.65,1.65,0,0,0,590.77,67.87Zm.28,67.62H575.94q-.83,0-.69-.69l8-41.85c.09-.28.23-.42.41-.42s.32.14.42.42l7.62,41.85Q591.88,135.49,591.05,135.49Zm70.53-15.38q-4.29-3.87-12.75-10.25-8.31-6.1-11.15-9.57a12.83,12.83,0,0,1-2.84-8.45c0-3.51.87-6.26,2.63-8.24a8.47,8.47,0,0,1,6.65-3,8.81,8.81,0,0,1,7.14,3.25,13.14,13.14,0,0,1,2.7,8.66v3.61a1.66,1.66,0,0,0,1.66,1.66h12.61a1.6,1.6,0,0,0,1.18-.48,1.64,1.64,0,0,0,.49-1.18V92.81q0-11.78-7.07-18.91t-18.71-7.14q-11.22,0-18.15,6.79T619,91.84a27.18,27.18,0,0,0,2.84,12.68,33.46,33.46,0,0,0,7.07,9.36,122.56,122.56,0,0,0,11.15,8.86q6.1,4.44,8.8,6.79a19.72,19.72,0,0,1,4.23,5.06,12.4,12.4,0,0,1,1.52,6.17,11.91,11.91,0,0,1-2.77,8.24,9,9,0,0,1-7.07,3.12,8.65,8.65,0,0,1-6.92-3.32,13.19,13.19,0,0,1-2.78-8.73v-3a1.61,1.61,0,0,0-.48-1.18,1.64,1.64,0,0,0-1.18-.49H621a1.66,1.66,0,0,0-1.66,1.67v3.88q0,11.08,7.06,18.08t18.43,7q11.51,0,18.64-7.14t7.14-18.91a24.88,24.88,0,0,0-2.36-11.23A29.23,29.23,0,0,0,661.58,120.11Zm45-53.35q-11.79,0-18.92,7t-7.13,18.91v47.26q0,11.77,7.13,18.91T706.62,166q11.91,0,19.12-7.14T733,139.93v-1.67a1.67,1.67,0,0,0-1.67-1.66l-12.88-.55a1.66,1.66,0,0,0-1.67,1.66v3.46a11.26,11.26,0,0,1-2.77,7.9,9.42,9.42,0,0,1-7.34,3.05,9.27,9.27,0,0,1-7.21-3.05,11.26,11.26,0,0,1-2.77-7.9V91.56a11.26,11.26,0,0,1,2.77-7.89,9.27,9.27,0,0,1,7.21-3,9.42,9.42,0,0,1,7.34,3,11.26,11.26,0,0,1,2.77,7.89V95a1.47,1.47,0,0,0,1.67,1.66l12.88-.55a1.5,1.5,0,0,0,1.18-.56,1.81,1.81,0,0,0,.49-1.24V92.67q0-11.91-7.21-18.91T706.62,66.76Zm63.74,0q-11.91,0-19.19,7.2t-7.28,19.13v46.56q0,11.92,7.28,19.12T770.36,166q11.92,0,19.26-7.21T797,139.65V93.09q0-11.93-7.35-19.13T770.36,66.76Zm10.53,73.58a12.31,12.31,0,0,1-2.91,8.53,9.73,9.73,0,0,1-7.62,3.25,9.51,9.51,0,0,1-7.55-3.25,12.47,12.47,0,0,1-2.84-8.53V92.4a12.49,12.49,0,0,1,2.84-8.53,9.51,9.51,0,0,1,7.55-3.25A9.73,9.73,0,0,1,778,83.87a12.33,12.33,0,0,1,2.91,8.53Zm61.26-72.47H827.32a1.65,1.65,0,0,0-1.8,1.52l-20.37,93.68q-.42,1.8,1.38,1.8h12.75a1.56,1.56,0,0,0,1.8-1.52l2.77-14.69c0-.37.28-.56.83-.56h20.1c.55,0,.83.24.83.7l2.63,14.55a1.57,1.57,0,0,0,1.8,1.52h12.89c1,0,1.53-.41,1.53-1.25v-.55L844,69.39A1.67,1.67,0,0,0,842.15,67.87Zm.27,67.62h-15.1q-.84,0-.69-.69l8-41.85q.14-.42.42-.42c.18,0,.32.14.41.42l7.63,41.85C843.21,135.26,843,135.49,842.42,135.49Zm81.28,16a1.64,1.64,0,0,0-1.18-.49H892.59a.61.61,0,0,1-.7-.69V69.53a1.64,1.64,0,0,0-1.66-1.66H877.48a1.64,1.64,0,0,0-1.66,1.66v93.68a1.64,1.64,0,0,0,1.66,1.66h45a1.64,1.64,0,0,0,1.66-1.66V152.68A1.61,1.61,0,0,0,923.7,151.5Z" transform="translate(-68.22 -14.88)"/></g><g id="cruz_de_malta" data-name="cruz de malta"><path class="cls-1" d="M466.32,107.76H451.2V92.88l7.44-7.68H428.4l7.44,7.44v15.12H421l-7.68-7.44v30.24l7.44-7.44h15.12v15.12l-7.44,7.44h30.24l-7.44-7.44V123.12h14.88l7.68,7.44V100.32Zm-.24,10.32H446.16V138h-5.28V118.08H421V112.8h19.92V92.88h5.28V112.8h19.92Z" transform="translate(-68.22 -14.88)"/></g><g id="_" data-name="®"><path class="cls-1" d="M969,21.59a2.45,2.45,0,0,0-1.06-2.18,5.86,5.86,0,0,0-3.25-.72h-3.81V29.25h1.73V24.66h2.19l2.16,4.59h1.93l-2.31-4.84a3,3,0,0,0,1.77-.95A2.76,2.76,0,0,0,969,21.59Zm-2.43,1.5a4.11,4.11,0,0,1-2.15.41h-1.81V19.85h1.76a4.12,4.12,0,0,1,2.17.44,1.62,1.62,0,0,1,.67,1.44A1.52,1.52,0,0,1,966.55,23.09Zm6.22-2.52a8.69,8.69,0,0,0-1.92-3,8.87,8.87,0,0,0-2.94-2,9,9,0,0,0-6.92,0,8.4,8.4,0,0,0-2.84,2,9.3,9.3,0,0,0-2,3,9.12,9.12,0,0,0-.7,3.54,9.32,9.32,0,0,0,.67,3.51,9.56,9.56,0,0,0,4.9,5,8.62,8.62,0,0,0,6.83,0,9.47,9.47,0,0,0,3-2,8.67,8.67,0,0,0,1.94-2.93,9.77,9.77,0,0,0,0-7.11Zm-1,6.69a8,8,0,0,1-1.71,2.58,8.18,8.18,0,0,1-2.62,1.78,7.69,7.69,0,0,1-3.05.61,7.57,7.57,0,0,1-3-.62,7.91,7.91,0,0,1-2.55-1.77,8.41,8.41,0,0,1-1.72-2.64,8.22,8.22,0,0,1,0-6.19,8.64,8.64,0,0,1,1.76-2.69,7.61,7.61,0,0,1,2.5-1.72,7.82,7.82,0,0,1,3-.59,7.88,7.88,0,0,1,7.36,5,8.52,8.52,0,0,1,.59,3.15A8.19,8.19,0,0,1,971.77,27.26Z" transform="translate(-68.22 -14.88)"/></g></svg>