<?xml version="1.0" encoding="utf-8"?>
<!-- Generator: Adobe Illustrator 25.2.3, SVG Export Plug-In . SVG Version: 6.00 Build 0)  -->
<svg version="1.1" id="Camada_1" xmlns="http://www.w3.org/2000/svg" xmlns:xlink="http://www.w3.org/1999/xlink" x="0px" y="0px"
	 viewBox="0 0 1200 1200" style="enable-background:new 0 0 1200 1200;" xml:space="preserve">
<style type="text/css">
	.st0{fill:#00AA9E;}
	.st1{fill:#2BABE2;}
	.st2{fill:#0871B8;}
	.st3{fill:#2F358B;}
</style>
<g>
	<g>
		<path class="st0" d="M269.04,505.2h53.29v20.84c12.3-14.35,31.09-27.33,60.13-27.33c67.3,0,92.58,59.1,92.58,103.17
			c0,54.66-38.26,99.41-92.24,99.41c-34.16,0-50.22-16.4-57.05-23.57v17.08V758h-56.71V505.2z M418.33,599.83
			c0-22.21-16.4-48.17-47.49-48.17c-13.67,0-25.62,5.47-34.16,14.35c-8.2,8.54-13.32,20.84-13.32,34.5
			c0,13.32,5.12,25.28,13.67,33.82c8.54,8.54,20.5,14.01,33.82,14.01c29.72,0,47.49-24.26,47.49-48.17V599.83z"/>
		<path class="st1" d="M418.35,599.49c0-46.12,33.14-100.44,102.15-100.44s102.15,54.32,102.15,100.78
			c0,46.46-33.14,100.78-102.15,100.78s-102.15-54.32-102.15-100.78V599.49z M475.06,600.17c0,27.33,20.84,47.49,45.44,47.49
			c24.6,0,45.44-20.16,45.44-47.83c0-27.67-20.84-47.83-45.44-47.83c-24.6,0-45.44,20.16-45.44,47.83V600.17z"/>
		<path class="st2" d="M772.56,694.8h-53.98v-20.5c-5.47,7.86-19.13,26.65-57.39,26.65c-57.39,0-94.97-44.41-94.97-101.46
			c0-64.23,45.78-100.78,93.95-100.78c33.48,0,49.54,16.4,55.69,22.55v-20.5V442h56.71V694.8z M622.93,599.49
			c0,29.04,20.84,48.51,47.49,48.51c13.67,0,26.31-5.47,35.19-14.35c8.88-8.88,14.01-21.18,13.32-35.19
			c0-13.67-5.47-25.28-14.01-33.48c-8.54-8.54-20.5-13.32-33.82-13.32c-32.8,0-48.17,25.62-48.17,47.49V599.49z"/>
		<path class="st3" d="M796.57,619.64c2.39,20.16,21.52,33.48,43.73,33.48c18.11,0,27.67-7.86,34.5-17.77h58.08
			c-9.22,21.18-22.55,37.58-38.6,48.51c-15.72,11.27-34.5,17.08-53.98,17.08c-54.32,0-100.44-44.07-100.44-100.44
			c0-52.95,41.68-101.81,99.41-101.81c29.04,0,53.98,11.27,71.74,30.06c23.91,25.62,31.09,56.03,26.65,90.87H796.57z M881.98,576.6
			c-1.37-8.88-12.98-30.06-42.36-30.06c-29.38,0-41,21.18-42.36,30.06H881.98z"/>
	</g>
	<g>
		<path class="st3" d="M1013.25,707.97c-6.63,6.63-17.36,6.63-23.92,0l-15.95-15.95c-6.63-6.63-6.63-17.36,0-23.92l68.03-68.03
			l-68.03-68.03c-6.63-6.63-6.63-17.36,0-23.92l15.88-16.09c6.63-6.63,17.36-6.63,23.92,0l95.98,95.98
			c6.7,6.63,6.7,17.36,0.07,23.99L1013.25,707.97z"/>
	</g>
	<g>
		<path class="st0" d="M186.76,492.03c6.63-6.63,17.36-6.63,23.92,0l15.95,15.95c6.63,6.63,6.63,17.36,0,23.92l-68.03,68.03
			l68.03,68.03c6.63,6.63,6.63,17.36,0,23.92l-15.88,16.09c-6.63,6.63-17.36,6.63-23.92,0L90.85,612c-6.7-6.63-6.7-17.36-0.07-23.99
			L186.76,492.03z"/>
	</g>
</g>
</svg>
